<svg width="1200" height="630" viewBox="0 0 1200 630" fill="none" xmlns="http://www.w3.org/2000/svg">
  <!-- Brand social card (1200x630). Source for og-event.png — export to PNG and
       drop og-event.png in the repo root. Cool-white bg, cobalt wordmark,
       charcoal tagline (CLAUDE.md). -->
  <rect width="1200" height="630" fill="#F6F8FF"/>

  <!-- nudge wordmark (from CLAUDE.md), centred and scaled ~3.3x -->
  <g transform="translate(286 150) scale(3.3)">
    <path d="M64.2184 40.4386C64.2184 40.4386 48.8816 47.3771 46.0289 54.4107C43.8894 59.6858 47.0705 64.7075 53.5209 66.8144C59.9713 68.9212 66.0051 66.9094 68.1446 61.6343C70.9973 54.6007 64.2184 40.4386 64.2184 40.4386Z" fill="#2B5CE6"/>
    <path opacity="0.85" d="M63.7815 40.7921C63.7815 40.7921 57.0027 26.63 59.8553 19.5965C61.9948 14.3214 68.0286 12.3095 74.479 14.4164C80.9294 16.5233 84.1106 21.545 81.9711 26.8201C79.1184 33.8536 63.7815 40.7921 63.7815 40.7921Z" fill="#2B5CE6"/>
    <path d="M16.8523 44.3409V62H8.38068V31.4545H16.4545V36.8438H16.8125C17.4886 35.0672 18.6222 33.6619 20.2131 32.6278C21.804 31.5805 23.733 31.0568 26 31.0568C28.1212 31.0568 29.9706 31.5208 31.5483 32.4489C33.1259 33.3769 34.3523 34.7027 35.2273 36.4261C36.1023 38.1364 36.5398 40.178 36.5398 42.5511V62H28.0682V44.0625C28.0814 42.1932 27.6042 40.7348 26.6364 39.6875C25.6686 38.6269 24.3362 38.0966 22.6392 38.0966C21.4991 38.0966 20.4915 38.3419 19.6165 38.8324C18.7547 39.3229 18.0786 40.0388 17.5881 40.9801C17.1108 41.9081 16.8655 43.0284 16.8523 44.3409Z" fill="#2D2D3A"/>
    <path d="M96.6364 62.4972C94.3163 62.4972 92.215 61.9006 90.3324 60.7074C88.4631 59.5009 86.9782 57.7311 85.8778 55.3977C84.7907 53.0511 84.2472 50.1742 84.2472 46.767C84.2472 43.267 84.8106 40.357 85.9375 38.0369C87.0644 35.7036 88.5625 33.9602 90.4318 32.8068C92.3144 31.6402 94.3759 31.0568 96.6165 31.0568C98.3267 31.0568 99.7519 31.3485 100.892 31.9318C102.045 32.5019 102.973 33.2178 103.676 34.0795C104.392 34.928 104.936 35.7633 105.307 36.5852H105.565V21.2727H114.017V62H105.665V57.108H105.307C104.909 57.9564 104.346 58.7983 103.616 59.6335C102.901 60.4555 101.966 61.1383 100.812 61.6818C99.6723 62.2254 98.2803 62.4972 96.6364 62.4972ZM99.321 55.7557C100.687 55.7557 101.84 55.3845 102.781 54.642C103.736 53.8864 104.465 52.8324 104.969 51.4801C105.486 50.1278 105.744 48.5436 105.744 46.7273C105.744 44.911 105.492 43.3333 104.989 41.9943C104.485 40.6553 103.756 39.6212 102.801 38.892C101.847 38.1629 100.687 37.7983 99.321 37.7983C97.929 37.7983 96.7557 38.1761 95.8011 38.9318C94.8466 39.6875 94.1241 40.7348 93.6335 42.0739C93.143 43.4129 92.8977 44.964 92.8977 46.7273C92.8977 48.5038 93.143 50.0748 93.6335 51.4403C94.1373 52.7926 94.8598 53.8532 95.8011 54.6222C96.7557 55.3778 97.929 55.7557 99.321 55.7557ZM134.744 74.0909C131.999 74.0909 129.646 73.7131 127.684 72.9574C125.735 72.215 124.184 71.2008 123.031 69.9148C121.877 68.6288 121.128 67.1837 120.783 65.5795L128.619 64.5256C128.857 65.1354 129.235 65.7055 129.752 66.2358C130.269 66.7661 130.952 67.1903 131.8 67.5085C132.662 67.84 133.71 68.0057 134.942 68.0057C136.785 68.0057 138.303 67.5549 139.496 66.6534C140.703 65.7652 141.306 64.2737 141.306 62.179V56.5909H140.948C140.577 57.4394 140.02 58.2415 139.278 58.9972C138.535 59.7528 137.581 60.3693 136.414 60.8466C135.247 61.3239 133.855 61.5625 132.238 61.5625C129.944 61.5625 127.856 61.0322 125.974 59.9716C124.104 58.8977 122.613 57.2604 121.499 55.0597C120.399 52.8456 119.849 50.0483 119.849 46.6676C119.849 43.2074 120.412 40.3172 121.539 37.9972C122.666 35.6771 124.164 33.9403 126.033 32.7869C127.916 31.6335 129.978 31.0568 132.218 31.0568C133.928 31.0568 135.36 31.3485 136.513 31.9318C137.667 32.5019 138.595 33.2178 139.298 34.0795C140.013 34.928 140.564 35.7633 140.948 36.5852H141.266V31.4545H149.678V62.2983C149.678 64.8968 149.042 67.071 147.769 68.821C146.496 70.571 144.733 71.8835 142.479 72.7585C140.239 73.6468 137.66 74.0909 134.744 74.0909ZM134.923 55.1989C136.288 55.1989 137.442 54.8608 138.383 54.1847C139.337 53.4953 140.067 52.5142 140.57 51.2415C141.087 49.9555 141.346 48.4176 141.346 46.6278C141.346 44.8381 141.094 43.2869 140.59 41.9744C140.086 40.6487 139.357 39.6212 138.403 38.892C137.448 38.1629 136.288 37.7983 134.923 37.7983C133.531 37.7983 132.357 38.1761 131.403 38.9318C130.448 39.6742 129.726 40.7083 129.235 42.0341C128.745 43.3598 128.499 44.8911 128.499 46.6278C128.499 48.3911 128.745 49.9157 129.235 51.2017C129.739 52.4744 130.461 53.4621 131.403 54.1648C132.357 54.8542 133.531 55.1989 134.923 55.1989ZM170.34 62.5966C167.198 62.5966 164.494 61.9602 162.227 60.6875C159.973 59.4015 158.236 57.5852 157.016 55.2386C155.797 52.8788 155.187 50.0881 155.187 46.8665C155.187 43.7244 155.797 40.9669 157.016 38.5938C158.236 36.2206 159.953 34.3712 162.167 33.0455C164.394 31.7197 167.006 31.0568 170.002 31.0568C172.017 31.0568 173.893 31.3816 175.63 32.0312C177.38 32.6676 178.905 33.6288 180.204 34.9148C181.516 36.2008 182.537 37.8182 183.266 39.767C183.996 41.7027 184.36 43.9697 184.36 46.5682V48.8949H158.567V43.6449H176.386C176.386 42.4252 176.121 41.3447 175.59 40.4034C175.06 39.4621 174.324 38.7263 173.383 38.196C172.455 37.6525 171.374 37.3807 170.141 37.3807C168.855 37.3807 167.715 37.679 166.721 38.2756C165.74 38.8589 164.971 39.6477 164.414 40.642C163.857 41.6231 163.572 42.7169 163.559 43.9233V48.9148C163.559 50.4261 163.837 51.732 164.394 52.8324C164.964 53.9328 165.766 54.7812 166.8 55.3778C167.835 55.9744 169.061 56.2727 170.479 56.2727C171.421 56.2727 172.282 56.1402 173.065 55.875C173.847 55.6098 174.516 55.2121 175.073 54.6818C175.63 54.1515 176.054 53.5019 176.346 52.733L184.181 53.25C183.783 55.1326 182.968 56.7765 181.735 58.1818C180.515 59.5739 178.938 60.661 177.002 61.4432C175.08 62.2121 172.859 62.5966 170.34 62.5966Z" fill="#2D2D3A"/>
  </g>

  <!-- Tagline -->
  <text x="600" y="470" text-anchor="middle"
    font-family="Inter, -apple-system, 'Segoe UI', Helvetica, Arial, sans-serif"
    font-size="38" font-weight="500" fill="#2D2D3A">meet real, verified people nearby</text>
</svg>
